<svg xmlns="http://www.w3.org/2000/svg" xmlns:xlink="http://www.w3.org/1999/xlink" width="24" height="24" preserveAspectRatio="xMidYMid meet" viewBox="0 0 24 24" style="-ms-transform: rotate(360deg); -webkit-transform: rotate(360deg); transform: rotate(360deg);"><path d="M24 12L18 1.387H6L0 12l6 10.613h12zm-5.782 1.658c-.003.825-.122 1.569-.354 2.231a5.05 5.05 0 0 1-.99 1.708a4.316 4.316 0 0 1-1.503 1.093a4.69 4.69 0 0 1-1.896.385a4.158 4.158 0 0 1-1.145-.152a3.754 3.754 0 0 1-.868-.36a3.792 3.792 0 0 1-.601-.435a3.023 3.023 0 0 1-.466-.514h-.04l.02.193c.011.166.018.331.02.497v.528H7.961V7.062c0-.151-.04-.263-.114-.337c-.077-.074-.19-.109-.33-.109h-.811V4.425h2.452c.473-.003.824.108 1.048.331c.222.223.333.576.33 1.049v3.003c-.003.258-.01.467-.02.626l-.02.247h.04a2.898 2.898 0 0 1 .463-.507c.156-.143.354-.284.6-.426c.245-.142.538-.261.876-.36c.38-.1.77-.15 1.162-.148c.702.003 1.334.135 1.894.395a4.118 4.118 0 0 1 1.446 1.11c.4.48.707 1.052.92 1.715c.212.658.317 1.392.32 2.198m-2.803 1.406c.138-.399.206-.852.209-1.366c-.003-.659-.112-1.231-.328-1.718c-.216-.484-.517-.859-.902-1.125a2.347 2.347 0 0 0-1.344-.404a2.57 2.57 0 0 0-.969.186a2.372 2.372 0 0 0-.83.589a2.839 2.839 0 0 0-.579 1.015c-.141.413-.212.906-.216 1.477c0 .397.053.792.159 1.174c.101.366.265.712.483 1.02c.211.3.486.548.805.722c.32.176.698.267 1.127.27c.343.002.683-.07.997-.213a2.43 2.43 0 0 0 .824-.623c.24-.273.428-.607.564-1.004z" fill="#626262"/><rect x="0" y="0" width="24" height="24" fill="rgba(0, 0, 0, 0)" /></svg>