<svg xmlns="http://www.w3.org/2000/svg" xmlns:xlink="http://www.w3.org/1999/xlink" width="1024" height="1024" preserveAspectRatio="xMidYMid meet" viewBox="0 0 1024 1024" style="-ms-transform: rotate(360deg); -webkit-transform: rotate(360deg); transform: rotate(360deg);"><path d="M512 378.7c-73.4 0-133.3 59.9-133.3 133.3S438.6 645.3 512 645.3S645.3 585.4 645.3 512S585.4 378.7 512 378.7zM911.8 512c0-55.2.5-109.9-2.6-165c-3.1-64-17.7-120.8-64.5-167.6c-46.9-46.9-103.6-61.4-167.6-64.5c-55.2-3.1-109.9-2.6-165-2.6c-55.2 0-109.9-.5-165 2.6c-64 3.1-120.8 17.7-167.6 64.5C132.6 226.3 118.1 283 115 347c-3.1 55.2-2.6 109.9-2.6 165s-.5 109.9 2.6 165c3.1 64 17.7 120.8 64.5 167.6c46.9 46.9 103.6 61.4 167.6 64.5c55.2 3.1 109.9 2.6 165 2.6c55.2 0 109.9.5 165-2.6c64-3.1 120.8-17.7 167.6-64.5c46.9-46.9 61.4-103.6 64.5-167.6c3.2-55.1 2.6-109.8 2.6-165zM512 717.1c-113.5 0-205.1-91.6-205.1-205.1S398.5 306.9 512 306.9S717.1 398.5 717.1 512S625.5 717.1 512 717.1zm213.5-370.7c-26.5 0-47.9-21.4-47.9-47.9s21.4-47.9 47.9-47.9s47.9 21.4 47.9 47.9a47.84 47.84 0 0 1-47.9 47.9z" fill="#626262"/><rect x="0" y="0" width="1024" height="1024" fill="rgba(0, 0, 0, 0)" /></svg>