<svg xmlns="http://www.w3.org/2000/svg" xmlns:xlink="http://www.w3.org/1999/xlink" width="24" height="24" preserveAspectRatio="xMidYMid meet" viewBox="0 0 24 24" style="-ms-transform: rotate(360deg); -webkit-transform: rotate(360deg); transform: rotate(360deg);"><g fill="none"><path fill-rule="evenodd" clip-rule="evenodd" d="M17.951 15.571a5.993 5.993 0 0 1-2.27 4.064a4.016 4.016 0 0 1-1.756 1.96a2 2 0 0 1-3.874 0a4.016 4.016 0 0 1-1.756-1.96a5.993 5.993 0 0 1-2.269-4.047a3.001 3.001 0 0 1-4.11-4.32L6.01 6.39a6 6 0 0 1 11.953-.033l4.12 4.91a3 3 0 0 1-4.132 4.304zm-2.326-2.665l-1.678-2h-3.894l-1.678 2h7.25zm2.363-.296l1.032 1.229a1 1 0 1 0 1.532-1.286l-2.564-3.055v3.112zm-2-3.704v-2a4 4 0 0 0-8 0v2h8zM4.98 13.839l1.007-1.2V9.527l-2.54 3.027a1 1 0 1 0 1.533 1.285zm7.007 5.067a4 4 0 0 1-4-4h8a4 4 0 0 1-4 4z" fill="#626262"/></g><rect x="0" y="0" width="24" height="24" fill="rgba(0, 0, 0, 0)" /></svg>
